<svg width="52" height="41" viewBox="0 0 52 41" fill="none" xmlns="http://www.w3.org/2000/svg">
<path d="M38.5 40H51V35.125C50.9999 33.6053 50.5142 32.1234 49.6103 30.8853C48.7065 29.6472 47.4295 28.7143 45.9569 28.2165C44.4842 27.7187 42.8891 27.6806 41.3932 28.1075C39.8972 28.5344 38.5749 29.4051 37.61 30.5986M38.5 40H13.5M38.5 40V35.125C38.5 33.526 38.185 31.9977 37.61 30.5986M37.61 30.5986C36.6816 28.3365 35.0794 26.3974 33.01 25.0316C30.9406 23.6658 28.499 22.9358 26 22.9358C23.501 22.9358 21.0594 23.6658 18.99 25.0316C16.9206 26.3974 15.3184 28.3365 14.39 30.5986M13.5 40H1V35.125C1.00011 33.6053 1.48584 32.1234 2.38965 30.8853C3.29347 29.6472 4.57046 28.7143 6.04313 28.2165C7.51579 27.7187 9.11094 27.6806 10.6068 28.1075C12.1027 28.5344 13.4251 29.4051 14.39 30.5986M13.5 40V35.125C13.5 33.526 13.815 31.9977 14.39 30.5986M33.5 8.3125C33.5 10.2519 32.7098 12.1119 31.3033 13.4832C29.8968 14.8546 27.9891 15.625 26 15.625C24.0109 15.625 22.1032 14.8546 20.6967 13.4832C19.2902 12.1119 18.5 10.2519 18.5 8.3125C18.5 6.3731 19.2902 4.51314 20.6967 3.14178C22.1032 1.77042 24.0109 1 26 1C27.9891 1 29.8968 1.77042 31.3033 3.14178C32.7098 4.51314 33.5 6.3731 33.5 8.3125ZM48.5 15.625C48.5 16.9179 47.9732 18.1579 47.0355 19.0721C46.0979 19.9864 44.8261 20.5 43.5 20.5C42.1739 20.5 40.9021 19.9864 39.9645 19.0721C39.0268 18.1579 38.5 16.9179 38.5 15.625C38.5 14.3321 39.0268 13.0921 39.9645 12.1779C40.9021 11.2636 42.1739 10.75 43.5 10.75C44.8261 10.75 46.0979 11.2636 47.0355 12.1779C47.9732 13.0921 48.5 14.3321 48.5 15.625ZM13.5 15.625C13.5 16.9179 12.9732 18.1579 12.0355 19.0721C11.0979 19.9864 9.82608 20.5 8.5 20.5C7.17392 20.5 5.90215 19.9864 4.96447 19.0721C4.02678 18.1579 3.5 16.9179 3.5 15.625C3.5 14.3321 4.02678 13.0921 4.96447 12.1779C5.90215 11.2636 7.17392 10.75 8.5 10.75C9.82608 10.75 11.0979 11.2636 12.0355 12.1779C12.9732 13.0921 13.5 14.3321 13.5 15.625Z" stroke="white" stroke-width="2" stroke-linecap="round" stroke-linejoin="round"/>
</svg>
