<svg width="41" height="41" viewBox="0 0 41 41" fill="none" xmlns="http://www.w3.org/2000/svg">
<path d="M35.6667 18.3333H5.33333M35.6667 18.3333C36.8159 18.3333 37.9181 18.7899 38.7308 19.6025C39.5435 20.4152 40 21.5174 40 22.6667V35.6667C40 36.8159 39.5435 37.9181 38.7308 38.7308C37.9181 39.5435 36.8159 40 35.6667 40H5.33333C4.18406 40 3.08186 39.5435 2.2692 38.7308C1.45655 37.9181 1 36.8159 1 35.6667V22.6667C1 21.5174 1.45655 20.4152 2.2692 19.6025C3.08186 18.7899 4.18406 18.3333 5.33333 18.3333M35.6667 18.3333V14C35.6667 12.8507 35.2101 11.7485 34.3975 10.9359C33.5848 10.1232 32.4826 9.66667 31.3333 9.66667M5.33333 18.3333V14C5.33333 12.8507 5.78988 11.7485 6.60254 10.9359C7.41519 10.1232 8.5174 9.66667 9.66667 9.66667M31.3333 9.66667V5.33333C31.3333 4.18406 30.8768 3.08186 30.0641 2.2692C29.2515 1.45655 28.1493 1 27 1H14C12.8507 1 11.7485 1.45655 10.9359 2.2692C10.1232 3.08186 9.66667 4.18406 9.66667 5.33333V9.66667M31.3333 9.66667H9.66667" stroke="white" stroke-width="2" stroke-linecap="round" stroke-linejoin="round"/>
</svg>
