<svg width="52" height="52" viewBox="0 0 52 52" fill="none" xmlns="http://www.w3.org/2000/svg">
<path d="M51 32.2639C43.0569 35.4756 34.5678 37.1216 26 37.1111C17.1583 37.1111 8.72222 35.3889 1 32.2639M37.1111 12.1111V6.55556C37.1111 5.08213 36.5258 3.66905 35.4839 2.62718C34.4421 1.58532 33.029 1 31.5556 1H20.4444C18.971 1 17.5579 1.58532 16.5161 2.62718C15.4742 3.66905 14.8889 5.08213 14.8889 6.55556V12.1111M26 28.7778H26.0278M6.55556 51H45.4444C46.9179 51 48.3309 50.4147 49.3728 49.3728C50.4147 48.3309 51 46.9179 51 45.4444V17.6667C51 16.1932 50.4147 14.7802 49.3728 13.7383C48.3309 12.6964 46.9179 12.1111 45.4444 12.1111H6.55556C5.08213 12.1111 3.66905 12.6964 2.62718 13.7383C1.58532 14.7802 1 16.1932 1 17.6667V45.4444C1 46.9179 1.58532 48.3309 2.62718 49.3728C3.66905 50.4147 5.08213 51 6.55556 51Z" stroke="white" stroke-width="2" stroke-linecap="round" stroke-linejoin="round"/>
</svg>
