<svg width="42" height="42" viewBox="0 0 42 42" fill="none" xmlns="http://www.w3.org/2000/svg">
<path d="M34.1188 6.54627C37.839 10.1389 39.9797 15.0621 40.07 20.2331C40.1603 25.404 38.1927 30.399 34.6001 34.1192M34.1188 6.54627C30.3986 2.95369 25.4036 0.98611 20.2326 1.07637C15.0617 1.16663 10.1384 3.30734 6.54584 7.02756M34.1188 6.54627L7.02713 34.6005M34.6001 34.1192C31.0075 37.8395 26.0842 39.9802 20.9133 40.0704C15.7424 40.1607 10.7474 38.1931 7.02713 34.6005M34.6001 34.1192C37.094 31.5367 32.8343 23.378 25.0882 15.8977C17.3422 8.41738 9.03978 4.44501 6.54584 7.02756M34.6001 34.1192C32.1062 36.7018 23.8038 32.7294 16.0577 25.2491C8.31159 17.7688 4.0519 9.61011 6.54584 7.02756M6.54584 7.02756C2.95326 10.7478 0.985675 15.7428 1.07593 20.9137C1.16619 26.0847 3.3069 31.0079 7.02713 34.6005" stroke="white" stroke-width="2" stroke-linecap="round" stroke-linejoin="round"/>
</svg>
