<svg width="41" height="41" viewBox="0 0 41 41" fill="none" xmlns="http://www.w3.org/2000/svg">
<path d="M1 5.875C1 4.58207 1.51361 3.34209 2.42785 2.42785C3.34209 1.51361 4.58207 1 5.875 1H10.75C12.0429 1 13.2829 1.51361 14.1971 2.42785C15.1114 3.34209 15.625 4.58207 15.625 5.875V10.75C15.625 12.0429 15.1114 13.2829 14.1971 14.1971C13.2829 15.1114 12.0429 15.625 10.75 15.625H5.875C4.58207 15.625 3.34209 15.1114 2.42785 14.1971C1.51361 13.2829 1 12.0429 1 10.75V5.875ZM25.375 5.875C25.375 4.58207 25.8886 3.34209 26.8029 2.42785C27.7171 1.51361 28.9571 1 30.25 1H35.125C36.4179 1 37.6579 1.51361 38.5721 2.42785C39.4864 3.34209 40 4.58207 40 5.875V10.75C40 12.0429 39.4864 13.2829 38.5721 14.1971C37.6579 15.1114 36.4179 15.625 35.125 15.625H30.25C28.9571 15.625 27.7171 15.1114 26.8029 14.1971C25.8886 13.2829 25.375 12.0429 25.375 10.75V5.875ZM1 30.25C1 28.9571 1.51361 27.7171 2.42785 26.8029C3.34209 25.8886 4.58207 25.375 5.875 25.375H10.75C12.0429 25.375 13.2829 25.8886 14.1971 26.8029C15.1114 27.7171 15.625 28.9571 15.625 30.25V35.125C15.625 36.4179 15.1114 37.6579 14.1971 38.5721C13.2829 39.4864 12.0429 40 10.75 40H5.875C4.58207 40 3.34209 39.4864 2.42785 38.5721C1.51361 37.6579 1 36.4179 1 35.125V30.25ZM25.375 30.25C25.375 28.9571 25.8886 27.7171 26.8029 26.8029C27.7171 25.8886 28.9571 25.375 30.25 25.375H35.125C36.4179 25.375 37.6579 25.8886 38.5721 26.8029C39.4864 27.7171 40 28.9571 40 30.25V35.125C40 36.4179 39.4864 37.6579 38.5721 38.5721C37.6579 39.4864 36.4179 40 35.125 40H30.25C28.9571 40 27.7171 39.4864 26.8029 38.5721C25.8886 37.6579 25.375 36.4179 25.375 35.125V30.25Z" stroke="white" stroke-width="2" stroke-linecap="round" stroke-linejoin="round"/>
</svg>
