<svg width="152" height="52" viewBox="0 0 152 52" fill="none" xmlns="http://www.w3.org/2000/svg">
<path fill-rule="evenodd" clip-rule="evenodd" d="M24.7754 1.36126C24.746 2.07107 24.8963 3.53606 25.1197 4.71676C25.3378 5.8694 25.5068 7.24309 25.4954 7.76921C25.4767 8.61988 25.5177 8.72594 25.8672 8.72594C26.1588 8.72594 26.2601 8.84312 26.2601 9.18153C26.2601 9.43211 26.1741 9.63712 26.0691 9.63712C25.9545 9.63712 25.8781 10.3661 25.8781 11.4595C25.8781 13.3338 25.8936 13.3686 26.6898 13.2913C26.9428 13.2669 27.024 13.3946 27.024 13.8171C27.024 14.1711 26.9273 14.3752 26.7595 14.3752C26.6139 14.3752 26.3561 14.5773 26.1865 14.8245C25.9425 15.1798 25.8781 15.7693 25.8781 17.6491C25.8781 19.7893 25.9111 20.0247 26.2123 20.0264C26.8689 20.0298 28.552 20.9262 29.3734 21.71C30.6348 22.9139 31.2584 24.3288 31.3731 26.2479C31.4478 27.4973 31.5328 27.8488 31.7763 27.9163C31.9461 27.9631 32.2354 28.0606 32.4191 28.1329C32.7092 28.2468 32.7534 28.1522 32.7534 27.4158C32.7534 26.7727 32.6483 26.4706 32.3191 26.1662C31.7943 25.6811 31.8336 24.9449 32.3848 24.9449C32.6875 24.9449 32.7534 24.8146 32.7534 24.216C32.7534 23.6895 32.6737 23.487 32.4669 23.487C32.2887 23.487 32.1804 23.315 32.1804 23.0314C32.1804 22.7809 32.2625 22.5758 32.3628 22.5758C32.4631 22.5758 32.5985 22.2684 32.6636 21.8925C32.8259 20.9576 33.1424 20.2068 33.3742 20.2068C33.4896 20.2068 33.5282 19.8778 33.4701 19.3867C33.4168 18.9357 33.4458 18.5667 33.5346 18.5667C33.6236 18.5667 33.6424 18.4325 33.5763 18.2685C33.4938 18.063 33.54 17.9975 33.7256 18.0579C33.9223 18.122 33.9773 18.3972 33.9298 19.0817C33.884 19.7421 33.9502 20.0993 34.1549 20.2946C34.3146 20.447 34.5432 21.0225 34.6631 21.5737C34.7831 22.1248 34.9611 22.5758 35.0587 22.5758C35.1563 22.5758 35.2361 22.7809 35.2361 23.0314C35.2361 23.315 35.1278 23.487 34.9496 23.487C34.7428 23.487 34.6631 23.6895 34.6631 24.216C34.6631 24.8234 34.7267 24.9449 35.0451 24.9449C35.3253 24.9449 35.4271 25.0665 35.4271 25.4005C35.4271 25.6511 35.2552 26.0201 35.0451 26.2206C34.7222 26.5287 34.6631 26.8279 34.6631 28.1566C34.6631 29.6867 34.6834 29.757 35.4271 30.8198C35.8472 31.4201 36.1923 32.0045 36.1939 32.1184C36.1956 32.2323 36.2802 32.2024 36.382 32.0521C36.4927 31.8886 36.5684 29.1252 36.5701 25.1789C36.5726 19.3625 36.5347 18.5025 36.2511 17.935C36.0573 17.5472 35.7915 17.291 35.5827 17.291C35.3427 17.291 35.2361 17.1543 35.2361 16.8469C35.2361 16.4792 35.3426 16.3931 35.8568 16.3458L36.4775 16.2887L36.5319 14.4208C36.5779 12.8405 36.5412 12.5529 36.2932 12.5529C36.1077 12.5529 36 12.3854 36 12.0973C36 11.7328 36.0955 11.6417 36.4775 11.6417C36.8904 11.6417 36.9549 11.5603 36.9549 11.0403C36.9549 10.7096 36.8481 10.3371 36.7177 10.2126C36.5433 10.0462 36.5382 9.9522 36.6977 9.85726C36.9851 9.6865 37.7855 4.8148 37.6535 4.03921C37.5859 3.64157 37.6193 3.47355 37.7505 3.551C37.8794 3.62699 37.905 3.53132 37.8223 3.28293C37.7261 2.99336 37.7622 2.92174 37.9665 2.99664C38.177 3.07354 38.2211 3.37551 38.1594 4.31657C38.109 5.08779 38.2276 6.30804 38.4816 7.63253C38.7027 8.78517 38.8744 10.1589 38.8632 10.685C38.845 11.5355 38.8865 11.6417 39.2358 11.6417C39.5274 11.6417 39.6286 11.7589 39.6286 12.0973C39.6286 12.3479 39.5396 12.5529 39.4309 12.5529C39.3039 12.5529 39.2528 13.2215 39.2877 14.4208L39.3421 16.2887L39.8673 16.3463C40.2799 16.3917 40.3925 16.4992 40.3925 16.8475C40.3925 17.1168 40.282 17.291 40.111 17.291C39.9561 17.291 39.6983 17.5327 39.5383 17.8282C39.2871 18.2917 39.2478 19.8265 39.2514 29.0357L39.2556 39.706H39.824H40.3925V42.804V45.902H40.87C41.3155 45.902 41.3474 45.8413 41.3474 44.9908V44.0796H42.5655H43.7837L44.0038 42.6677C44.2209 41.2749 44.7503 39.9474 45.2963 39.4264C45.4602 39.2699 45.9367 39.1593 46.4456 39.1593C47.2416 39.1593 47.3816 39.0873 48.1016 38.3068C49.0632 37.2644 50.7516 36.1983 51.9472 35.879C52.5757 35.711 52.8881 35.5151 53.0082 35.2133C53.102 34.9781 53.2649 34.7856 53.3705 34.7856C53.4759 34.7856 53.746 34.4421 53.9706 34.0222C54.2855 33.4329 54.3543 33.0619 54.2716 32.396C54.1937 31.7676 54.2395 31.4737 54.4402 31.3146C54.6318 31.1631 54.716 30.713 54.716 29.843C54.716 29.1288 54.7981 28.5896 54.907 28.5896C55.0149 28.5896 55.1006 29.125 55.1041 29.8197C55.1077 30.5592 55.2123 31.1785 55.3667 31.3724C55.5301 31.5779 55.5895 31.9794 55.5305 32.4792C55.4627 33.052 55.5475 33.4688 55.8447 34.0246C56.0685 34.4432 56.338 34.7856 56.4434 34.7856C56.549 34.7856 56.7108 34.9753 56.8032 35.2071C56.9164 35.4914 57.2413 35.7046 57.8011 35.8623C59.1202 36.2333 60.4941 37.067 61.5613 38.1437C62.4787 39.0694 62.6187 39.1441 63.5285 39.1954C64.4886 39.2493 64.5188 39.2688 65.0581 40.1814C65.4265 40.8049 65.6832 41.6031 65.835 42.5961L66.0615 44.0796H67.2641H68.4665V44.9908V45.902H70.174C71.1133 45.902 71.9347 45.984 71.9996 46.0842C72.0781 46.2054 60.0298 46.2665 36 46.2665C11.9702 46.2665 -0.0781115 46.2054 0.000381046 46.0842C0.0733352 45.9716 1.72111 45.902 4.30869 45.902H8.49897V42.804V39.706H9.16147H9.82398L9.83162 29.0908C9.8383 19.4403 9.80966 18.4229 9.5144 17.8955C9.33584 17.5764 9.03428 17.2764 8.84426 17.2291C8.65423 17.1817 8.49897 16.9767 8.49897 16.7729C8.49897 16.4886 8.64277 16.3897 9.11965 16.3458L9.74033 16.2887L9.79476 14.4208C9.84079 12.8405 9.80412 12.5529 9.55604 12.5529C9.3706 12.5529 9.26288 12.3854 9.26288 12.0973C9.26288 11.7328 9.35837 11.6417 9.74033 11.6417C10.1683 11.6417 10.2178 11.5677 10.2178 10.9279C10.2178 10.5277 10.1129 10.1736 9.97906 10.1217C9.80565 10.0546 9.79896 9.98811 9.95499 9.87877C10.2502 9.67193 11.0415 4.96806 10.9229 4.12449C10.8618 3.68895 10.8971 3.4823 11.0203 3.55501C11.1427 3.62717 11.1637 3.51874 11.0776 3.26015C10.9773 2.95873 11.0096 2.87345 11.2004 2.93523C11.3917 2.99737 11.4456 3.34708 11.4068 4.27794C11.3772 4.98738 11.5275 6.45164 11.7512 7.63253C11.9693 8.78517 12.1383 10.1589 12.1268 10.685C12.1081 11.5356 12.1492 11.6417 12.4986 11.6417C12.7903 11.6417 12.8915 11.7589 12.8915 12.0973C12.8915 12.3479 12.8056 12.5529 12.7005 12.5529C12.5854 12.5529 12.5095 13.3123 12.5095 14.4664V16.3798H13.0825C13.5662 16.3798 13.6554 16.4507 13.6554 16.8354C13.6554 17.1153 13.5469 17.291 13.3739 17.291C13.219 17.291 12.9612 17.533 12.801 17.8286C12.555 18.2826 12.5095 19.4319 12.5095 25.2091C12.5095 28.9729 12.5817 32.0521 12.6698 32.0521C12.758 32.0521 12.9354 31.8318 13.0639 31.5626C13.1925 31.2934 13.55 30.769 13.8584 30.3974C14.3811 29.7676 14.4193 29.6145 14.4193 28.1446C14.4193 26.6966 14.3804 26.5331 13.9419 26.1455C13.6793 25.9131 13.4644 25.5481 13.4644 25.334C13.4644 25.0404 13.5817 24.9449 13.9419 24.9449C14.3716 24.9449 14.4193 24.872 14.4193 24.216C14.4193 23.6895 14.3397 23.487 14.1329 23.487C13.8084 23.487 13.7268 22.6442 14.0416 22.5441C14.1489 22.5101 14.308 22.0515 14.3953 21.5253C14.4823 20.9991 14.7056 20.4083 14.8912 20.2126C15.1447 19.9455 15.197 19.6963 15.1017 19.2118C15.0244 18.8178 15.0503 18.5667 15.1685 18.5667C15.2751 18.5667 15.3083 18.4325 15.2423 18.2685C15.1598 18.063 15.2062 17.9974 15.3916 18.0575C15.5902 18.1218 15.6441 18.4057 15.5973 19.1409C15.5499 19.8824 15.611 20.1984 15.836 20.3766C16.0022 20.5082 16.1381 20.8007 16.1381 21.0263C16.1381 21.8269 16.3805 22.5758 16.6395 22.5758C16.7922 22.5758 16.9021 22.7663 16.9021 23.0314C16.9021 23.315 16.7938 23.487 16.6156 23.487C16.4088 23.487 16.3291 23.6895 16.3291 24.216C16.3291 24.8234 16.3927 24.9449 16.7111 24.9449C17.0082 24.9449 17.093 25.0665 17.093 25.4916C17.093 25.8375 16.9953 26.0383 16.827 26.0383C16.4771 26.0383 16.3291 26.4409 16.3291 27.3929V28.1708L16.9806 27.9762L17.632 27.7816L17.6967 26.1354C17.7773 24.0911 18.2385 23.0936 19.7669 21.6568C20.7217 20.7595 21.4319 20.3746 22.9657 19.924C23.1385 19.8731 23.2044 19.2757 23.2044 17.7584C23.2044 15.4721 22.8833 14.3752 22.2142 14.3752C21.7287 14.3752 21.7421 13.5266 22.2296 13.379C22.4288 13.3186 22.7082 13.2926 22.8503 13.321C23.0518 13.3615 23.1209 12.9602 23.1633 11.505C23.2093 9.92469 23.1727 9.63712 22.9246 9.63712C22.7414 9.63712 22.6314 9.47092 22.6314 9.19429C22.6314 8.87355 22.75 8.73524 23.0611 8.69314C23.395 8.64776 23.5046 8.49687 23.5527 8.01613C23.59 7.64492 23.5136 7.33512 23.3617 7.24163C23.1771 7.12792 23.1679 7.04901 23.3276 6.94915C23.6354 6.7567 24.4121 1.89958 24.2594 1.12235C24.1688 0.662202 24.1959 0.525524 24.3585 0.62138C24.517 0.714866 24.5426 0.634138 24.4461 0.344384C24.3461 0.0431482 24.3783 -0.0426865 24.5689 0.0185446C24.7603 0.079958 24.8141 0.429306 24.7754 1.36126ZM24.271 4.57407C24.1996 5.10346 24.0911 5.84443 24.0302 6.2202C23.9223 6.88682 23.9341 6.90359 24.5168 6.90359C24.8453 6.90359 25.114 6.88299 25.114 6.85803C25.1126 6.62513 24.5315 3.7356 24.4752 3.68184C24.4345 3.64303 24.3426 4.04449 24.271 4.57407ZM10.9045 7.47435C10.832 8.01249 10.7225 8.7602 10.6616 9.13597C10.5529 9.8066 10.5625 9.81936 11.169 9.81936C11.7139 9.81936 11.7745 9.77088 11.6814 9.40933C11.6234 9.18372 11.517 8.54826 11.4448 7.997C11.2535 6.5331 11.0575 6.34376 10.9045 7.47435ZM37.6396 7.48984C37.5681 8.01923 37.4597 8.7602 37.3987 9.13597C37.2906 9.80332 37.3021 9.81936 37.889 9.81936C38.4138 9.81936 38.4776 9.76742 38.3926 9.40933C38.3391 9.18372 38.2115 8.47591 38.109 7.83627C38.0066 7.19644 37.8884 6.64026 37.8464 6.59998C37.8042 6.55989 37.7112 6.96026 37.6396 7.48984ZM23.7773 7.997C23.7773 8.70863 23.7932 8.72594 24.4457 8.72594C25.0983 8.72594 25.1142 8.70863 25.1142 7.997C25.1142 7.28537 25.0983 7.26806 24.4457 7.26806C23.7932 7.26806 23.7773 7.28537 23.7773 7.997ZM44.2448 9.20978C44.4369 9.37561 44.5941 9.60851 44.5941 9.72714C44.5941 9.84596 44.8089 10.0366 45.0715 10.1507C45.3341 10.2649 45.549 10.4421 45.549 10.5445C45.549 10.6467 45.7638 10.7305 46.0264 10.7305C46.289 10.7305 46.5039 10.8125 46.5039 10.9128C46.5039 11.0214 45.7718 11.095 44.6896 11.095C43.6073 11.095 42.8753 11.0214 42.8753 10.9128C42.8753 10.8113 43.3882 10.7305 44.0324 10.7305C44.7854 10.7305 45.1466 10.6642 45.0667 10.5408C44.9991 10.4366 44.7662 10.4051 44.5492 10.4708C44.2484 10.5618 44.1806 10.5252 44.2643 10.3169C44.4102 9.95421 43.8953 9.27265 43.4755 9.27265C43.0496 9.27265 42.6843 9.62072 42.6843 10.0267C42.6843 10.2564 42.5454 10.3342 42.1799 10.3092C41.9026 10.2904 41.6375 10.3775 41.5911 10.5027C41.5409 10.638 41.6685 10.7305 41.9045 10.7305C42.1234 10.7305 42.3023 10.8125 42.3023 10.9128C42.3023 11.013 41.9156 11.095 41.4429 11.095C40.9702 11.095 40.5835 11.013 40.5835 10.9128C40.5835 10.8125 40.692 10.7305 40.8247 10.7305C40.9573 10.7305 41.1507 10.5465 41.2544 10.3216C41.3581 10.0967 41.6098 9.88259 41.814 9.84578C42.0181 9.80915 42.3466 9.58318 42.5441 9.34372C42.9656 8.83219 43.7372 8.7715 44.2448 9.20978ZM23.7345 9.22399C24.1837 9.26263 24.8713 9.26208 25.2624 9.2229C25.6535 9.18372 25.2861 9.15219 24.4457 9.15292C23.6054 9.15347 23.2854 9.18554 23.7345 9.22399ZM23.5863 11.4403V13.2436L24.398 13.3254C24.8445 13.3704 25.2742 13.3742 25.3529 13.3338C25.4316 13.2933 25.4961 12.4452 25.4961 11.4487V9.63712H24.5412H23.5863V11.4403ZM10.5512 10.4116C10.502 10.537 10.4779 10.8444 10.4978 11.095C10.527 11.4642 10.6486 11.5613 11.1396 11.6076C11.7307 11.6634 11.7456 11.6466 11.7456 10.9242C11.7456 10.2292 11.7118 10.1838 11.1931 10.1838C10.8893 10.1838 10.6003 10.2864 10.5512 10.4116ZM37.1804 10.9128C37.1701 11.6239 37.186 11.6417 37.8263 11.6417C38.4648 11.6417 38.4827 11.6218 38.4827 10.9128C38.4827 10.2061 38.4631 10.1838 37.8368 10.1838C37.2123 10.1838 37.1906 10.2081 37.1804 10.9128ZM10.361 12.1396C10.8075 12.178 11.5378 12.178 11.9843 12.1396C12.4308 12.1013 12.0655 12.0698 11.1727 12.0698C10.2798 12.0698 9.91451 12.1013 10.361 12.1396ZM37.1031 12.1398C37.5523 12.1784 38.2398 12.1778 38.6309 12.1387C39.0221 12.0995 38.6546 12.068 37.8143 12.0687C36.974 12.0692 36.6539 12.1013 37.1031 12.1398ZM10.2178 14.4414V16.3301L11.1249 16.3093L12.0321 16.2887L12.0865 14.4208L12.1409 12.5529H11.1794H10.2178V14.4414ZM36.9549 14.4764V16.3999L37.8621 16.3443L38.7692 16.2887L38.8236 14.4208L38.8781 12.5529H37.9165H36.9549V14.4764ZM22.2495 13.8285C22.2495 13.9395 23.1089 14.0108 24.4457 14.0108C25.7826 14.0108 26.642 13.9395 26.642 13.8285C26.642 13.7176 25.7826 13.6463 24.4457 13.6463C23.1089 13.6463 22.2495 13.7176 22.2495 13.8285ZM23.2044 14.7397C23.3169 14.9402 23.5991 15.1151 23.8317 15.1284C25.4658 15.2225 25.5001 15.2166 25.7883 14.7969L26.0779 14.3752H24.5389C23.0592 14.3752 23.0079 14.3893 23.2044 14.7397ZM23.6813 15.6859C23.6305 15.8169 23.5667 19.4301 23.5397 23.7148L23.4909 31.5056L24.4956 31.5054H25.5001L25.4505 23.5326L25.4006 15.5598L24.5873 15.5036C24.0472 15.4665 23.7428 15.5277 23.6813 15.6859ZM44.2465 16.4254C44.2858 16.6889 44.4612 16.8562 44.7373 16.8937C45.2673 16.9655 45.3093 17.291 44.7887 17.291C44.5444 17.291 44.368 17.4525 44.2906 17.7466C44.1422 18.3103 43.8773 18.3385 43.7958 17.7996C43.7578 17.5496 43.5536 17.3521 43.2572 17.2784L42.7798 17.16L43.305 16.9566C43.6348 16.8289 43.8302 16.616 43.8302 16.3844C43.8302 15.8816 44.1707 15.9151 44.2465 16.4254ZM8.9556 16.7766C8.90212 16.8589 9.8998 16.9265 11.1727 16.9265C12.4696 16.9265 13.4409 16.8555 13.3823 16.7649C13.2507 16.5619 9.08756 16.5726 8.9556 16.7766ZM35.7 16.7653C35.6417 16.8553 36.5716 16.9265 37.803 16.9265C39.0171 16.9265 40.0106 16.8549 40.0106 16.7673C40.0106 16.5581 35.8356 16.5561 35.7 16.7653ZM9.83468 17.6533C10.2329 18.3633 11.9832 18.395 12.4633 17.701L12.7471 17.291H11.1893C9.69373 17.291 9.63949 17.3054 9.83468 17.6533ZM36.3881 17.4277C36.4072 17.8601 36.9442 18.1368 37.8481 18.1803C38.672 18.2199 38.871 18.1668 39.0417 17.8625C39.1544 17.6617 39.2467 17.4508 39.2467 17.3942C39.2467 17.3375 38.6021 17.291 37.8143 17.291C37.0265 17.291 36.3846 17.3526 36.3881 17.4277ZM57.1913 17.6517C57.3834 17.7497 57.6311 18.0777 57.7417 18.3806C57.8522 18.6835 58.07 18.9311 58.2252 18.9311C58.3807 18.9311 58.6769 19.1361 58.8833 19.3867C59.1083 19.6597 59.454 19.8423 59.7454 19.8423C60.013 19.8423 60.2849 19.9243 60.3499 20.0245C60.4272 20.1441 58.8877 20.2068 55.8731 20.2068C53.3461 20.2068 51.2793 20.1454 51.2805 20.0701C51.2818 19.9948 51.6255 19.7767 52.0444 19.5852C52.4634 19.3936 52.8062 19.1813 52.8062 19.1134C52.8062 18.9353 53.7131 18.5667 54.1505 18.5667C54.3548 18.5667 54.7517 18.3206 55.0326 18.02C55.5721 17.4421 56.4781 17.2875 57.1913 17.6517ZM55.834 17.9079C55.5909 18.0236 55.2927 18.3081 55.1717 18.5401C54.8052 19.2413 54.5777 19.382 54.241 19.1154C53.8696 18.8211 52.9972 19.1365 52.9972 19.5651C52.9972 19.8009 53.4273 19.8423 55.8852 19.8423C58.4834 19.8423 58.7485 19.8137 58.5254 19.5573C58.3669 19.3751 58.1156 19.3109 57.8289 19.3796C57.437 19.4735 57.391 19.4314 57.4644 19.0454C57.633 18.1577 56.6907 17.5004 55.834 17.9079ZM10.4565 18.5144C10.2716 18.5783 10.2178 20.0533 10.2178 25.0511V31.5054H11.1727H12.1276V25.036C12.1276 21.4779 12.063 18.5596 11.9843 18.5508C11.1337 18.457 10.6557 18.4455 10.4565 18.5144ZM36.9549 24.7526C36.9549 28.2661 36.9333 31.2023 36.9072 31.2776C36.881 31.3529 37.3116 31.4391 37.8645 31.4695L38.8695 31.5245L38.8194 25.0001L38.7692 18.4755L37.8621 18.42L36.9549 18.3644V24.7526ZM24.8073 20.1306C25.0412 20.7123 24.932 21.118 24.5412 21.118C24.2492 21.118 24.1593 20.9964 24.1593 20.6017C24.1593 19.8516 24.5739 19.5502 24.8073 20.1306ZM50.6099 20.0245C50.6749 20.1248 50.5459 20.2068 50.3235 20.2068C50.101 20.2068 49.972 20.1248 50.037 20.0245C50.1019 19.9243 50.2308 19.8423 50.3235 19.8423C50.4161 19.8423 50.545 19.9243 50.6099 20.0245ZM25.8781 22.4572C25.8781 24.4086 25.9245 24.7463 26.2291 25.0092C26.557 25.2924 26.6008 25.2904 26.8975 24.9775C27.0721 24.7935 27.2149 24.558 27.2149 24.4543C27.2149 24.1048 28.2182 23.3048 28.6563 23.3048C29.0822 23.3048 30.0796 24.2258 30.0796 24.6191C30.0796 24.7251 30.3019 25.0085 30.5737 25.2489L31.0676 25.6857L30.9339 25.0876C30.4759 23.0404 28.9118 21.3082 26.8443 20.5585L25.8781 20.2082V22.4572ZM15.0037 20.6491C14.6252 21.0844 14.8273 21.9285 15.3265 21.9963C15.7008 22.047 15.7562 21.9736 15.7562 21.4263C15.7562 20.6693 15.3507 20.2503 15.0037 20.6491ZM21.4856 20.838C19.9023 21.6339 18.431 23.4278 18.1155 24.9475C17.9935 25.5348 18.0084 25.563 18.3147 25.3227C18.4969 25.1796 18.7786 24.8106 18.9406 24.5026C19.3067 23.8065 19.9291 23.3141 20.4497 23.3088C20.9159 23.3041 21.5692 23.9186 21.8501 24.626C22.0575 25.1483 22.3371 25.2412 22.8224 24.9491C23.0449 24.8152 23.1232 24.2863 23.1727 22.5828L23.2363 20.389L22.7907 20.3976C22.5455 20.4021 21.9582 20.6004 21.4856 20.838ZM33.3209 20.763C32.9749 21.3798 33.159 21.938 33.7082 21.938C34.0547 21.938 34.2021 21.8279 34.2455 21.5375C34.3119 21.0917 33.9833 20.389 33.7082 20.389C33.6107 20.389 33.4363 20.5572 33.3209 20.763ZM11.4387 21.4063C11.6727 21.988 11.5634 22.3936 11.1727 22.3936C10.9234 22.3936 10.7907 22.2721 10.7907 22.0441C10.7907 21.5861 10.9838 21.118 11.1727 21.118C11.2552 21.118 11.3749 21.2477 11.4387 21.4063ZM38.2918 21.9603C38.2918 22.2721 38.1846 22.3936 37.9098 22.3936C37.5181 22.3936 37.41 21.9876 37.6457 21.4015C37.8141 20.9827 38.2918 21.3959 38.2918 21.9603ZM6.3556 21.5839C6.58917 21.7399 6.78015 21.9859 6.78015 22.1306C6.78015 22.2753 6.86609 22.3936 6.97113 22.3936C7.07617 22.3936 7.3401 22.5635 7.55763 22.771C7.77515 22.9786 8.13056 23.181 8.34733 23.221C9.28924 23.3939 8.80797 23.487 6.97113 23.487C5.88579 23.487 5.05752 23.4298 5.13085 23.36C5.204 23.29 5.69119 23.2286 6.21352 23.2233C6.74654 23.2179 7.14187 23.1337 7.11475 23.0314C7.08839 22.9312 6.91957 22.8681 6.73985 22.8913C6.53761 22.9174 6.44976 22.8419 6.50934 22.6936C6.56243 22.5616 6.4404 22.2586 6.23796 22.0202C5.90737 21.6306 5.81742 21.6096 5.34933 21.813C4.95706 21.9836 4.85412 22.1326 4.93204 22.4168C5.01665 22.7253 4.9647 22.7765 4.64806 22.6974C4.43492 22.6444 4.13986 22.6449 3.99262 22.6988C3.61906 22.8357 3.65573 23.2698 4.03807 23.239C4.21071 23.2251 4.38279 23.2962 4.4206 23.3972C4.46242 23.5089 4.15342 23.5554 3.63185 23.5158L2.77455 23.4508L3.38702 22.831C3.72391 22.4902 4.11217 22.2114 4.24987 22.2114C4.38775 22.2114 4.55257 22.0814 4.61635 21.9227C4.72578 21.6508 5.29968 21.3374 5.73492 21.3117C5.84301 21.3055 6.12222 21.4279 6.3556 21.5839ZM14.766 22.4184C14.6059 22.5152 14.7745 22.5713 15.231 22.5731C15.625 22.5746 15.9472 22.5443 15.9472 22.506C15.9472 22.348 14.9984 22.2777 14.766 22.4184ZM33.037 22.3982C32.969 22.5029 33.253 22.5758 33.7289 22.5758C34.6228 22.5758 34.6198 22.3834 33.7243 22.2839C33.4096 22.2489 33.1002 22.3003 33.037 22.3982ZM24.8073 22.6819C25.0193 23.2089 24.9274 23.487 24.5412 23.487C24.2683 23.487 24.1593 23.3655 24.1593 23.0619C24.1593 22.3925 24.5896 22.1403 24.8073 22.6819ZM14.7535 23.0721C15.0948 23.1125 15.6536 23.1125 15.9949 23.0721C16.3362 23.0318 16.057 22.9986 15.3742 22.9986C14.6915 22.9986 14.4123 23.0318 14.7535 23.0721ZM33.0876 23.0721C33.429 23.1125 33.9875 23.1125 34.3289 23.0721C34.6704 23.0318 34.391 22.9986 33.7082 22.9986C33.0255 22.9986 32.7461 23.0318 33.0876 23.0721ZM11.5546 24.433C11.5546 24.6411 11.4139 24.7627 11.1727 24.7627C10.776 24.7627 10.6733 24.3557 10.917 23.7496C11.0348 23.4568 11.0602 23.458 11.2989 23.7697C11.4395 23.9532 11.5546 24.2517 11.5546 24.433ZM14.7262 23.7753C14.6624 23.9339 14.6103 24.2619 14.6103 24.5043C14.6103 24.8864 14.6991 24.9449 15.2787 24.9449C15.9313 24.9449 15.9472 24.9276 15.9472 24.216C15.9472 23.5335 15.912 23.487 15.3947 23.487C15.0669 23.487 14.795 23.6044 14.7262 23.7753ZM33.1353 24.216C33.1353 24.9044 33.1672 24.9449 33.7082 24.9449C34.2493 24.9449 34.2812 24.9044 34.2812 24.216C34.2812 23.5275 34.2493 23.487 33.7082 23.487C33.1672 23.487 33.1353 23.5275 33.1353 24.216ZM19.5897 24.1495C19.372 24.4135 19.1938 24.7146 19.1938 24.8184C19.1938 24.9223 19.071 25.1368 18.9209 25.2952C18.6978 25.5302 18.6891 25.7077 18.8722 26.2661C19.1447 27.0969 19.4299 27.1879 19.1825 26.3652C19.0443 25.9057 19.0899 25.6172 19.3964 25.0132C19.9816 23.8599 20.2522 23.7095 20.8227 24.2211C21.0822 24.4536 21.2946 24.7641 21.2946 24.911C21.2946 25.0579 21.4344 25.2757 21.6053 25.3948C21.8545 25.5687 21.8734 25.6873 21.7008 25.9951C21.5824 26.2062 21.4919 26.5278 21.4997 26.7097C21.5079 26.9019 21.6607 26.735 21.8637 26.3117C22.2048 25.6011 22.2044 25.5751 21.8496 25.2802C21.6494 25.1138 21.4856 24.8614 21.4856 24.7197C21.4856 24.3772 20.6821 23.6693 20.2935 23.6693C20.1241 23.6693 19.8072 23.8854 19.5897 24.1495ZM27.8605 24.1704C27.6853 24.4459 27.3908 24.8831 27.206 25.1417C26.9206 25.5403 26.9029 25.7134 27.0891 26.2807C27.2096 26.6484 27.3824 26.9495 27.4732 26.9495C27.5637 26.9495 27.5853 26.8188 27.5211 26.6592C27.2142 25.8962 27.2058 25.5436 27.4892 25.319C27.6534 25.1889 27.7879 24.9786 27.7879 24.8516C27.7879 24.7248 27.9525 24.4272 28.1536 24.1906L28.5193 23.7604L29.013 24.2021C29.2846 24.4452 29.5067 24.7641 29.5067 24.911C29.5067 25.0579 29.6383 25.27 29.7993 25.3823C30.0414 25.5512 30.054 25.6895 29.8726 26.1861C29.7521 26.516 29.7005 26.8307 29.7578 26.8854C29.8153 26.9402 29.9675 26.6492 30.0964 26.2388C30.2989 25.5938 30.2878 25.4473 30.0141 25.1589C29.8402 24.9753 29.6977 24.7434 29.6977 24.6435C29.6977 24.3583 28.848 23.6693 28.4962 23.6693C28.3215 23.6693 28.0354 23.8949 27.8605 24.1704ZM38.1758 23.9576C38.3878 24.4846 38.296 24.7627 37.9098 24.7627C37.6369 24.7627 37.5278 24.6411 37.5278 24.3375C37.5278 23.6682 37.9581 23.4159 38.1758 23.9576ZM20.215 24.4274C19.7026 25.0532 19.4224 25.8728 19.5565 26.3549C19.6718 26.7694 19.8168 26.8682 20.3769 26.9136C21.027 26.9664 21.0633 26.9382 21.1926 26.2811C21.2795 25.8391 21.2535 25.5696 21.1202 25.5273C21.006 25.4909 20.9126 25.3198 20.9126 25.1468C20.9126 24.9739 20.8007 24.6863 20.6638 24.5077C20.4604 24.242 20.3787 24.2274 20.215 24.4274ZM28.4426 24.4162C27.8268 25.3546 27.6823 25.8169 27.832 26.3687C27.9693 26.874 28.0719 26.9495 28.6207 26.9495C29.1742 26.9495 29.2766 26.8719 29.4548 26.3182C29.6148 25.8202 29.6014 25.6423 29.3912 25.4758C29.2447 25.3597 29.1247 25.1674 29.1247 25.0486C29.1247 24.9296 29.009 24.6812 28.8675 24.4966C28.6547 24.2191 28.581 24.205 28.4426 24.4162ZM24.8483 25.2316C24.9814 25.7376 24.704 26.1557 24.3669 25.957C24.1392 25.8227 24.0837 25.0779 24.2867 24.8842C24.5336 24.6486 24.7263 24.7678 24.8483 25.2316ZM13.8464 25.4916C13.8464 25.5969 14.4512 25.6738 15.2787 25.6738C16.1063 25.6738 16.7111 25.5969 16.7111 25.4916C16.7111 25.3863 16.1063 25.3094 15.2787 25.3094C14.4512 25.3094 13.8464 25.3863 13.8464 25.4916ZM22.7443 25.4648C22.6889 25.5503 22.767 25.7757 22.9179 25.966C23.1778 26.2934 23.1925 26.2854 23.1983 25.8105C23.2042 25.3296 22.955 25.1397 22.7443 25.4648ZM25.8838 25.7741C25.889 26.2453 25.915 26.2701 26.0947 25.9753C26.2415 25.734 26.24 25.5818 26.0889 25.4377C25.9352 25.291 25.8796 25.3821 25.8838 25.7741ZM32.3714 25.4916C32.3714 25.5957 32.9443 25.6738 33.7082 25.6738C34.4722 25.6738 35.0451 25.5957 35.0451 25.4916C35.0451 25.3876 34.4722 25.3094 33.7082 25.3094C32.9443 25.3094 32.3714 25.3876 32.3714 25.4916ZM11.4735 26.4835C11.6096 27.0012 11.4561 27.314 11.0659 27.314C10.891 27.314 10.7907 27.1257 10.7907 26.7977C10.7907 25.9525 11.2752 25.7296 11.4735 26.4835ZM14.5148 26.2206C14.5798 26.3208 14.9235 26.4028 15.2787 26.4028C15.634 26.4028 15.9777 26.3208 16.0427 26.2206C16.1148 26.109 15.8181 26.0383 15.2787 26.0383C14.7394 26.0383 14.4426 26.109 14.5148 26.2206ZM18.17 26.1648C17.9339 26.39 18.0512 26.9495 18.3344 26.9495C18.492 26.9495 18.6209 26.7904 18.6209 26.5958C18.6209 26.2154 18.3692 25.9747 18.17 26.1648ZM22.2495 26.2056C22.2495 26.2976 22.1973 26.5027 22.1336 26.6612C22.0493 26.8706 22.1334 26.9495 22.4405 26.9495C22.7476 26.9495 22.8316 26.8706 22.7474 26.6612C22.6836 26.5027 22.6314 26.2976 22.6314 26.2056C22.6314 26.1136 22.5455 26.0383 22.4405 26.0383C22.3354 26.0383 22.2495 26.1136 22.2495 26.2056ZM26.3821 26.1648C26.146 26.39 26.2633 26.9495 26.5465 26.9495C26.7041 26.9495 26.833 26.7904 26.833 26.5958C26.833 26.2154 26.5813 25.9747 26.3821 26.1648ZM30.4616 26.2056C30.4616 26.2976 30.4095 26.5027 30.3457 26.6612C30.2626 26.8679 30.3438 26.9495 30.6321 26.9495C31.0512 26.9495 31.114 26.8126 30.9186 26.3266C30.7941 26.0172 30.4616 25.9292 30.4616 26.2056ZM32.9443 26.2206C32.9443 26.3208 33.2881 26.4028 33.7082 26.4028C34.1284 26.4028 34.4722 26.3208 34.4722 26.2206C34.4722 26.1203 34.1284 26.0383 33.7082 26.0383C33.2881 26.0383 32.9443 26.1203 32.9443 26.2206ZM38.2106 26.4835C38.3468 27.0012 38.1932 27.314 37.803 27.314C37.6281 27.314 37.5278 27.1257 37.5278 26.7977C37.5278 25.9525 38.0124 25.7296 38.2106 26.4835ZM14.7789 26.8128C14.7163 26.9413 14.6842 29.3186 14.7453 29.3186C14.7847 29.3186 15.0711 29.1391 15.3819 28.9198C15.8721 28.5741 15.9472 28.4045 15.9472 27.6442C15.9472 26.7913 15.9315 26.7673 15.3742 26.7673C15.0591 26.7673 14.7914 26.7879 14.7789 26.8128ZM33.1353 28.2847V29.8022L33.7082 29.7218L34.2812 29.6417V28.2045V26.7673H33.7082H33.1353V28.2847ZM24.9232 28.0777C24.9232 28.2858 24.7824 28.4074 24.5412 28.4074C24.2492 28.4074 24.1593 28.2858 24.1593 27.8911C24.1593 27.607 24.2213 27.3154 24.2974 27.2431C24.4799 27.0687 24.9232 27.6597 24.9232 28.0777ZM18.0554 27.6329C18.06 27.8297 18.4072 28.1096 18.9625 28.3642L19.8622 28.7764L21.4707 28.2731C23.9018 27.5121 23.7307 27.314 20.642 27.314C18.296 27.314 18.0487 27.3444 18.0554 27.6329ZM25.8781 27.5498C25.8781 27.6846 26.5742 28.0019 27.5047 28.2909L29.1312 28.7965L30.0751 28.3742C30.6677 28.1089 31.0217 27.8332 31.0267 27.6329C31.0338 27.3446 30.7874 27.314 28.4563 27.314C26.4743 27.314 25.8781 27.3685 25.8781 27.5498ZM16.3041 28.742C15.8179 29.0394 15.3654 29.367 15.2988 29.4698C15.079 29.8093 15.8692 29.8753 16.7206 29.5888C17.1851 29.4323 17.792 29.3561 18.0846 29.4173C18.4068 29.4849 18.7639 29.4259 19.0038 29.2655C19.3938 29.0049 19.3932 29.0013 18.8976 28.6915C18.001 28.1307 17.2802 28.1448 16.3041 28.742ZM21.7864 28.5129C21.374 28.6569 21.0051 28.805 20.9665 28.842C20.9277 28.879 21.4155 29.4048 22.0503 30.0105L23.2044 31.1118V29.6685C23.2044 28.0476 23.1782 28.0263 21.7864 28.5129ZM25.8781 29.6167V31.0081L26.8435 30.0723C27.3746 29.5575 27.8903 29.1363 27.9894 29.1363C28.0887 29.1363 28.1698 29.0693 28.1698 28.9874C28.1698 28.8597 26.3674 28.2251 26.0045 28.2251C25.935 28.2251 25.8781 28.8513 25.8781 29.6167ZM30.5323 28.4876C29.3551 28.9765 29.5762 29.3884 31.0345 29.4228C31.5072 29.4339 32.0872 29.5024 32.3237 29.5753C32.7026 29.692 32.7534 29.6449 32.7534 29.1779C32.7534 28.3226 31.7102 27.9984 30.5323 28.4876ZM11.5546 29.3534C11.5546 29.5615 11.4139 29.683 11.1727 29.683C10.776 29.683 10.6733 29.2761 10.917 28.67C11.0348 28.3771 11.0602 28.3784 11.2989 28.69C11.4395 28.8735 11.5546 29.172 11.5546 29.3534ZM38.2918 29.2497C38.2918 29.5615 38.1846 29.683 37.9098 29.683C37.5181 29.683 37.41 29.277 37.6457 28.6909C37.8141 28.2722 38.2918 28.6853 38.2918 29.2497ZM19.3796 29.4368C18.5011 29.9961 17.4444 31.0463 17.0768 31.7259C16.7521 32.326 16.7111 32.8127 16.7111 36.054V39.706H18.6209H20.5307V36.511C20.5307 34.1332 20.6015 33.1544 20.8074 32.6841C20.9596 32.3366 21.171 32.0521 21.2774 32.0521C21.748 32.0521 22.0585 33.9486 22.0585 36.8234C22.0585 38.6237 22.1301 39.706 22.2495 39.706C22.3708 39.706 22.4405 38.3175 22.4405 35.9053V32.1046L21.7881 31.2893C21.4292 30.8408 20.9107 30.3334 20.6359 30.1614C20.1596 29.8636 20.1119 29.8656 19.6172 30.205C18.9148 30.6868 18.166 31.4702 17.7065 32.2039C17.4973 32.5379 17.2764 32.7346 17.2156 32.6405C16.929 32.1982 18.8088 30.1078 19.9325 29.6192C20.3597 29.4335 20.4888 29.5143 21.6137 30.6698C22.759 31.8463 23.2846 32.1472 22.8543 31.38C22.5239 30.7908 20.5685 29.1363 20.2026 29.1363C20.0097 29.1363 19.6392 29.2715 19.3796 29.4368ZM27.8362 29.6706C27.0201 30.2347 26.0691 31.3049 26.0691 31.6592C26.0691 32.0468 26.351 31.8682 26.8928 31.1376C27.1882 30.7391 27.7285 30.1957 28.0936 29.93C28.692 29.4946 28.8047 29.4707 29.2332 29.6896C29.907 30.0337 31.1833 31.2632 31.529 31.9014C32.0526 32.8674 31.7142 32.8235 31.0315 31.8367C30.6656 31.3077 30.0006 30.6319 29.5537 30.3351L28.7413 29.7951L28.0574 30.4225C27.6811 30.7675 27.1735 31.3778 26.9291 31.7787C26.5051 32.4745 26.4848 32.671 26.4835 36.1068C26.4824 39.0935 26.5282 39.706 26.753 39.706C26.9758 39.706 27.0264 39.1485 27.0385 36.5624C27.0478 34.5491 27.1384 33.1934 27.2904 32.792C27.9714 30.9933 28.5518 32.8481 28.5518 36.8234V39.706H30.4616H32.3714V36.0013V32.2967L31.6504 31.3088C30.9721 30.379 29.3675 29.1363 28.8453 29.1363C28.7155 29.1363 28.2613 29.3767 27.8362 29.6706ZM16.8066 29.9247C15.4903 30.4162 15.4598 30.4655 16.0022 31.2271L16.4886 31.9103L16.9559 31.204C17.2128 30.8156 17.5636 30.3865 17.7355 30.2503C18.4249 29.7043 17.8946 29.5185 16.8066 29.9247ZM30.9524 29.8447C30.8949 29.9334 30.99 30.118 31.164 30.2547C31.3378 30.3914 31.7202 30.8182 32.0133 31.2034L32.5465 31.9036L32.9357 31.2945C33.1496 30.9594 33.3251 30.6197 33.3255 30.5397C33.3265 30.356 31.8122 29.6923 31.38 29.687C31.2024 29.6849 31.0099 29.7557 30.9524 29.8447ZM14.8672 30.3287C14.6953 30.7562 14.8809 30.8063 15.1443 30.4038C15.2919 30.1782 15.3045 30.0475 15.1789 30.0475C15.0696 30.0475 14.9294 30.174 14.8672 30.3287ZM33.8049 30.4131C34.1945 30.824 34.3501 30.7958 34.1698 30.3469C34.1036 30.1822 33.9162 30.0475 33.7537 30.0475C33.5039 30.0475 33.5117 30.104 33.8049 30.4131ZM13.7612 31.1252C12.66 32.7898 12.5095 33.461 12.5095 36.7058V39.706H13.2735H14.0374L14.042 35.8335C14.0444 33.7037 14.1256 31.6353 14.2224 31.2371C14.3191 30.8391 14.3662 30.4827 14.3271 30.4455C14.2879 30.4081 14.0334 30.7139 13.7612 31.1252ZM34.7422 30.9587C34.8008 31.2093 34.8501 33.28 34.8515 35.5601L34.8541 39.706H35.7135H36.5729V36.7922C36.5729 34.1059 36.5355 33.7892 36.0938 32.7375C35.8302 32.1099 35.3942 31.3505 35.1249 31.0498C34.645 30.5138 34.6376 30.512 34.7422 30.9587ZM14.8085 31.4917C14.4499 32.1627 14.4222 32.5168 14.4554 36.0084L14.4913 39.7971L14.6004 35.879C14.7077 32.0218 14.833 31.2827 15.4103 31.099C15.5841 31.0438 15.5864 30.9928 15.4199 30.8945C15.2808 30.8125 15.0524 31.0356 14.8085 31.4917ZM33.205 31.4598C32.8903 31.9027 32.842 32.4118 32.7906 35.8335C32.7528 38.3511 32.7996 39.706 32.9249 39.706C33.0478 39.706 33.1177 38.3819 33.1183 36.0416C33.1193 32.5979 33.2931 31.1409 33.7027 31.1409C34.0742 31.1409 34.1836 32.0129 34.2858 35.7879L34.3942 39.7971L34.4332 35.8271C34.4664 32.4368 34.4271 31.7915 34.1637 31.4079C33.7717 30.8369 33.6427 30.8439 33.205 31.4598ZM15.6939 31.5965C15.7776 31.797 15.8734 33.7037 15.9071 35.8335C15.943 38.1019 16.043 39.706 16.1486 39.706C16.2562 39.706 16.3259 38.2503 16.3211 36.1068C16.3138 32.8363 16.2779 32.4494 15.9275 31.8699C15.7153 31.5191 15.6103 31.396 15.6939 31.5965ZM54.6564 31.6231C54.4072 31.8607 54.5261 32.0521 54.9228 32.0521C55.1451 32.0521 55.2874 31.9566 55.2452 31.8358C55.1522 31.5693 54.8332 31.4542 54.6564 31.6231ZM10.0268 32.0521C10.0268 32.1523 10.4995 32.2343 11.0772 32.2343C11.6549 32.2343 12.1276 32.1523 12.1276 32.0521C12.1276 31.9519 11.6549 31.8699 11.0772 31.8699C10.4995 31.8699 10.0268 31.9519 10.0268 32.0521ZM15.1168 32.2644C15.0513 32.4984 14.9963 34.1864 14.9949 36.0157C14.9927 38.8517 15.0345 39.3415 15.2787 39.3415C15.5236 39.3415 15.5648 38.8314 15.5623 35.8335C15.5595 32.5157 15.4015 31.2499 15.1168 32.2644ZM19.2824 32.55C19.741 33.1938 19.7668 33.3595 19.7668 35.6571V38.0841L18.6858 38.0294L17.6049 37.9747L17.6341 35.6166C17.6612 33.4254 17.6975 33.2093 18.1448 32.5642C18.4097 32.1822 18.665 31.8699 18.7122 31.8699C18.7595 31.8699 19.016 32.1758 19.2824 32.55ZM23.2999 32.0521C23.2258 32.1665 23.648 32.2343 24.4345 32.2343C25.1422 32.2343 25.6871 32.1551 25.6871 32.0521C25.6871 31.9511 25.1816 31.8699 24.5525 31.8699C23.9284 31.8699 23.3648 31.9519 23.2999 32.0521ZM30.931 32.6604C31.3817 33.3944 31.4165 33.6157 31.4165 35.7584V38.0659H30.2559H29.0951L29.1578 35.637C29.2153 33.3979 29.2575 33.1561 29.6977 32.5403C29.9603 32.1729 30.2361 31.8719 30.3103 31.8711C30.3846 31.8704 30.664 32.2256 30.931 32.6604ZM36.7639 32.0521C36.7639 32.1523 37.2366 32.2343 37.8143 32.2343C38.392 32.2343 38.8647 32.1523 38.8647 32.0521C38.8647 31.9519 38.392 31.8699 37.8143 31.8699C37.2366 31.8699 36.7639 31.9519 36.7639 32.0521ZM33.4457 32.6216C33.38 32.9348 33.3263 34.575 33.3263 36.2663C33.3263 39.1695 33.3467 39.3415 33.6903 39.3415C34.031 39.3415 34.056 39.1666 34.0799 36.6162C34.1063 33.8283 33.9613 32.0521 33.7075 32.0521C33.6292 32.0521 33.5113 32.3083 33.4457 32.6216ZM10.2178 36.0755V39.706H11.1727H12.1276V36.1524C12.1276 32.8955 12.0997 32.5975 11.7934 32.5829C11.6094 32.5744 11.1797 32.5398 10.8385 32.506L10.2178 32.445V36.0755ZM18.3109 32.88C18.0233 33.2982 17.9398 33.8256 17.8887 35.5512L17.8251 37.7014H18.7099H19.5949L19.5655 35.9246C19.5299 33.7777 19.4549 33.3527 19.0114 32.792L18.6692 32.359L18.3109 32.88ZM22.8665 36.4564L22.9179 40.5193L24.5412 40.5226L26.1646 40.526V36.5169V32.5077L24.4899 32.4506L22.815 32.3936L22.8665 36.4564ZM29.8149 33.0363C29.5888 33.491 29.5067 34.195 29.5067 35.6788V37.7014H30.2706H31.0345V35.5882C31.0345 33.9191 30.9658 33.3638 30.7068 32.9458C30.5267 32.6547 30.3216 32.4166 30.2511 32.4166C30.1809 32.4166 29.9845 32.6956 29.8149 33.0363ZM37.0913 32.5295C37.0162 32.601 36.9549 34.2449 36.9549 36.1828V39.706H37.9138H38.8727L38.821 36.1068L38.7692 32.5077L37.9984 32.4536C37.5744 32.4239 37.1661 32.4579 37.0913 32.5295ZM54.5983 33.3733C54.4859 33.7992 54.3336 34.2777 54.2601 34.4365C54.1511 34.6719 54.2727 34.7308 54.9188 34.7548C55.6069 34.7805 55.6921 34.7426 55.5657 34.4662C55.4856 34.291 55.3281 33.7992 55.2156 33.3733C55.1031 32.9474 54.9643 32.5988 54.907 32.5988C54.8497 32.5988 54.7108 32.9474 54.5983 33.3733ZM21.0335 33.0571C20.9671 33.2224 20.9126 34.704 20.9126 36.3496C20.9126 39.2519 20.9245 39.3415 21.3072 39.3415C21.6928 39.3415 21.7004 39.2714 21.6414 36.2521C21.6032 34.2936 21.5029 33.0885 21.3677 32.9596C21.2107 32.8102 21.1223 32.8361 21.0335 33.0571ZM27.5268 33.0571C27.4604 33.2224 27.4059 34.704 27.4059 36.3496C27.4059 39.2519 27.4178 39.3415 27.8005 39.3415C28.1861 39.3415 28.1937 39.2714 28.1347 36.2521C28.0965 34.2936 27.9962 33.0885 27.861 32.9596C27.704 32.8102 27.6156 32.8361 27.5268 33.0571ZM53.5065 35.0894C53.2158 35.3668 53.4536 35.4235 54.907 35.4235C56.3773 35.4235 56.7717 35.3125 56.1327 35.0785C55.7244 34.9289 53.6656 34.9374 53.5065 35.0894ZM53.2088 35.894C51.5092 36.2123 49.1621 37.5226 48.1998 38.6902L47.8153 39.1564L48.4221 40.3325C48.7605 40.9886 49.1233 42.0807 49.2423 42.8025C49.4541 44.086 49.4604 44.096 50.0173 44.0425C50.5421 43.992 50.5945 43.9145 50.8211 42.849C51.2325 40.9153 52.2275 39.6774 54.0294 38.8575L54.716 38.5451V37.121C54.716 35.5335 54.7939 35.5969 53.2088 35.894ZM55.0979 37.1095C55.0979 38.5096 55.1142 38.561 55.6231 38.7779C57.4193 39.5434 58.5892 40.9525 58.9892 42.8322C59.222 43.9262 59.2666 43.9914 59.8157 44.0439L60.3961 44.0993L60.5945 42.824C60.7103 42.0805 61.0519 41.0465 61.414 40.3447L62.0353 39.1407L61.097 38.2235C59.8037 36.9591 57.9451 36.0853 55.9096 35.7846L55.0979 35.6647V37.1095ZM53.5371 39.5046C52.0822 40.385 51.0874 41.9932 51.0874 43.4648C51.0874 44.3599 51.3975 44.2176 51.5352 43.259C51.6002 42.8076 51.8238 42.1193 52.0321 41.7295C52.4573 40.9342 53.8104 39.7468 54.4721 39.5884C55.1413 39.4281 55.702 39.6316 56.5897 40.3566C57.5148 41.1121 58.0864 42.0648 58.2692 43.1557C58.4263 44.0933 58.7266 44.3094 58.7266 43.485C58.7266 41.9455 57.4953 40.0437 56.0399 39.3353C55.0447 38.8507 54.5638 38.8834 53.5371 39.5046ZM45.3123 39.9321C44.8742 40.5701 44.4592 41.8472 44.3047 43.0318C44.1701 44.0645 44.1751 44.0796 44.6489 44.0796C45.092 44.0796 45.1395 43.9976 45.257 43.0316C45.3271 42.4554 45.5455 41.5327 45.7422 40.9814C46.0344 40.163 46.0551 39.9356 45.854 39.7406C45.6517 39.5443 45.5553 39.5784 45.3123 39.9321ZM46.7976 40.49C47.0526 41.0215 47.3272 42.026 47.4078 42.7223L47.5543 43.9885L48.2704 44.045C48.9685 44.1002 48.9866 44.086 48.9866 43.4859C48.9866 42.6979 48.4908 41.0859 47.978 40.2071C47.6442 39.6349 47.4781 39.5237 46.9567 39.5237H46.3341L46.7976 40.49ZM62.083 39.9338C61.5166 40.7602 61.0475 42.0102 60.9154 43.0442L60.7802 44.1042L61.508 44.0465L62.2358 43.9885L62.4862 42.5678C62.6241 41.7864 62.9086 40.8074 63.1189 40.3923C63.329 39.9771 63.501 39.612 63.501 39.5806C63.501 39.5493 63.2451 39.5237 62.9325 39.5237C62.5534 39.5237 62.2704 39.6604 62.083 39.9338ZM63.8945 39.784C63.7184 39.9863 63.7293 40.1588 63.9433 40.5585C64.2665 41.1626 64.6469 42.7752 64.6469 43.5419C64.6469 43.994 64.7229 44.0796 65.1244 44.0796C65.5258 44.0796 65.6018 43.994 65.6018 43.5419C65.6018 42.5857 65.1937 41.0923 64.7155 40.2983C64.1878 39.4224 64.2014 39.431 63.8945 39.784ZM53.8319 40.2596C52.7907 40.8962 51.8513 42.4592 51.8513 43.5546V44.0995L54.8592 44.0439C57.8626 43.9885 57.8673 43.9878 57.9313 43.555C58.048 42.7683 57.4054 41.5755 56.4004 40.7134C55.3176 39.7843 54.7681 39.6874 53.8319 40.2596ZM8.88092 42.9862C8.88092 45.8883 8.88303 45.902 9.31063 45.9024C9.72143 45.9027 9.73747 45.8466 9.67693 44.6267L9.61352 43.3507H10.6952H11.7769L11.7135 44.6267C11.653 45.8466 11.669 45.9027 12.0798 45.9024C12.4845 45.902 12.5095 45.8276 12.5095 44.6263V43.3507H13.4644H14.4193V44.6263C14.4193 45.8276 14.4443 45.902 14.849 45.9024C15.2598 45.9027 15.2759 45.8466 15.2153 44.6267L15.1519 43.3507H16.2336H17.3153L17.2519 44.6267L17.1885 45.9029L17.995 45.9024L18.8017 45.902L18.8544 43.214L18.9073 40.526H20.6097C21.8014 40.526 22.336 40.4577 22.3921 40.2983C22.4552 40.1189 21.0286 40.0705 15.6765 40.0705H8.88092V42.9862ZM26.7041 40.3341C26.9363 40.5022 27.574 40.5849 28.6139 40.5822L30.1751 40.5782L30.2175 42.83C30.2408 44.0685 30.2624 45.2664 30.2653 45.492C30.2699 45.848 30.3713 45.902 31.0345 45.902H31.7985V44.6263V43.3507H32.7534C33.8127 43.3507 33.7634 43.2687 33.7107 44.9453C33.6827 45.8329 33.7126 45.902 34.124 45.9024C34.552 45.9027 34.5654 45.8579 34.5043 44.6267L34.4408 43.3507H35.5226H36.6043L36.5409 44.6267C36.4803 45.8466 36.4964 45.9027 36.9072 45.9024C37.3118 45.902 37.3369 45.8276 37.3369 44.6263V43.3507H38.2918H39.2467V44.6263C39.2467 45.7804 39.2829 45.902 39.6286 45.902C39.9947 45.902 40.0106 45.7804 40.0106 42.9862V40.0705L33.1831 40.0763C27.3278 40.0812 26.4052 40.118 26.7041 40.3341ZM46.1296 40.8905C45.806 41.6586 45.4865 43.4795 45.6181 43.8063C45.6882 43.9807 45.9821 44.0796 46.4302 44.0796H47.1322L47.0229 42.8351C46.9628 42.1505 46.789 41.31 46.6366 40.9672L46.3599 40.3438L46.1296 40.8905ZM63.1284 41.2094C63.0079 41.5353 62.8582 42.3143 62.7958 42.9407L62.6819 44.0796H63.501H64.3201L64.2063 42.9407C64.0841 41.7171 63.7503 40.6172 63.501 40.6172C63.4166 40.6172 63.2489 40.8836 63.1284 41.2094ZM11.7078 41.7561L11.6501 42.7129H10.6952H9.74033L9.68266 41.7561L9.62479 40.7994H10.6952H11.7657L11.7078 41.7561ZM14.4193 41.8017V42.804H13.4644H12.5095V41.8017V40.7994H13.4644H14.4193V41.8017ZM17.2462 41.7561L17.1885 42.7129H16.2336H15.2787L15.2211 41.7561L15.1632 40.7994H16.2336H17.3041L17.2462 41.7561ZM19.1938 43.3507V45.902H19.9375H20.6812L20.7537 44.4897C20.8051 43.4881 20.9329 42.925 21.1932 42.5538L21.5602 42.0302L22.0004 42.5184C22.3799 42.9394 22.4405 43.2056 22.4405 44.4543V45.902H23.3954H24.3503V43.3507V40.7994H21.772H19.1938V43.3507ZM24.7322 43.3554V45.922L25.638 45.8665L26.544 45.8109L26.6063 44.4441C26.6479 43.5307 26.7818 42.9057 27.01 42.56L27.3515 42.0426L27.7608 42.539C28.1001 42.9509 28.1698 43.2796 28.1698 44.4687V45.902H29.0346H29.8994L29.8463 43.3963L29.7932 40.8905L27.2627 40.8397L24.7322 40.7888V43.3554ZM33.7082 41.8117V42.824L32.8011 42.7685L31.8939 42.7129L31.8363 41.7561L31.7784 40.7994H32.7434H33.7082V41.8117ZM36.5351 41.7561L36.4775 42.7129H35.5226H34.5677L34.51 41.7561L34.4521 40.7994H35.5226H36.593L36.5351 41.7561ZM39.2467 41.8017V42.804H38.2918H37.3369V41.8017V40.7994H38.2918H39.2467V41.8017ZM10.0268 41.7106C10.0268 42.4222 10.0427 42.4395 10.6952 42.4395C11.3278 42.4395 11.3637 42.4063 11.3637 41.8212C11.3637 41.1894 11.1236 40.9816 10.3931 40.9816C10.0931 40.9816 10.0268 41.1136 10.0268 41.7106ZM12.987 41.1336C12.9345 41.1837 12.8915 41.4979 12.8915 41.8321C12.8915 42.3881 12.941 42.4395 13.4759 42.4395C14.0326 42.4395 14.0576 42.4076 14.0011 41.7702C13.953 41.2251 13.8621 41.0955 13.5122 41.0718C13.2757 41.0556 13.0393 41.0835 12.987 41.1336ZM15.7014 41.0948C15.6265 41.1662 15.5652 41.4979 15.5652 41.8321C15.5652 42.4067 15.6019 42.4395 16.2451 42.4395C16.9141 42.4395 16.9242 42.4284 16.8658 41.7561C16.8157 41.1783 16.7317 41.0644 16.3221 41.0188C16.0554 40.9891 15.776 41.0234 15.7014 41.0948ZM32.2748 41.1345C32.2228 41.1841 32.1804 41.4979 32.1804 41.8321C32.1804 42.3805 32.2341 42.4395 32.7329 42.4395C33.6865 42.4395 33.8759 41.2555 32.9432 41.1249C32.6275 41.0806 32.3267 41.085 32.2748 41.1345ZM35.1883 41.1054C34.9525 41.1655 34.8541 41.3743 34.8541 41.815C34.8541 42.4093 34.8872 42.4395 35.534 42.4395C36.2028 42.4395 36.2131 42.4282 36.1547 41.7576C36.0947 41.0667 35.8877 40.927 35.1883 41.1054ZM37.7188 41.7179C37.7188 42.3982 37.7517 42.4395 38.2918 42.4395C38.8265 42.4395 38.8647 42.394 38.8643 41.7561C38.8639 41.1271 38.8185 41.0697 38.2914 41.0345C37.745 40.998 37.7188 41.0292 37.7188 41.7179ZM21.3089 43.0436C21.196 43.3257 21.1036 44.0844 21.1036 44.7293C21.1036 45.8586 21.1212 45.902 21.5811 45.902C22.0469 45.902 22.0585 45.8694 22.0585 44.57C22.0585 43.7041 21.9632 43.1143 21.7864 42.8844C21.5238 42.5432 21.5068 42.5489 21.3089 43.0436ZM27.054 43.0874C26.9325 43.3418 26.833 44.0793 26.833 44.726C26.833 45.859 26.8506 45.902 27.3104 45.902C27.7793 45.902 27.7879 45.8763 27.7879 44.4663C27.7879 43.4872 27.7063 42.9664 27.5314 42.8277C27.3322 42.67 27.2255 42.728 27.054 43.0874ZM10.0268 44.6263V45.5375H10.6952H11.3637V44.6263V43.7152H10.6952H10.0268V44.6263ZM12.8915 44.6263C12.8915 45.5173 12.9043 45.5375 13.4644 45.5375C14.0246 45.5375 14.0374 45.5173 14.0374 44.6263C14.0374 43.7354 14.0246 43.7152 13.4644 43.7152C12.9043 43.7152 12.8915 43.7354 12.8915 44.6263ZM15.5652 44.6263V45.5375H16.2336H16.9021V44.6263V43.7152H16.2336H15.5652V44.6263ZM32.1804 44.6263V45.5607L32.8011 45.5034C33.4006 45.4484 33.4218 45.4183 33.4218 44.6263C33.4218 43.8343 33.4006 43.8043 32.8011 43.7492L32.1804 43.692V44.6263ZM34.8541 44.6263V45.5375H35.5226H36.191V44.6263V43.7152H35.5226H34.8541V44.6263ZM37.7188 44.6263C37.7188 45.5173 37.7316 45.5375 38.2918 45.5375C38.8519 45.5375 38.8647 45.5173 38.8647 44.6263C38.8647 43.7354 38.8519 43.7152 38.2918 43.7152C37.7316 43.7152 37.7188 43.7354 37.7188 44.6263ZM42.4933 45.0069C42.4933 45.4076 42.4005 45.7198 42.2815 45.7198C42.1518 45.7198 42.0999 45.4723 42.1476 45.0819C42.2015 44.642 42.1486 44.4441 41.9775 44.4441C41.8153 44.4441 41.7294 44.6967 41.7294 45.173V45.902H54.907H68.0845V45.173C68.0845 44.7721 68.0202 44.4381 67.9413 44.4306C67.8624 44.4231 67.6132 44.3838 67.3871 44.3433C67.0095 44.2755 66.9843 44.3286 67.0781 44.9946C67.1449 45.4701 67.1056 45.7198 66.9639 45.7198C66.8401 45.7198 66.7477 45.4176 66.7477 45.0136C66.7477 44.3818 66.6975 44.3074 66.2702 44.3074C65.843 44.3074 65.7928 44.3818 65.7928 45.0136C65.7928 45.4092 65.6996 45.7198 65.581 45.7198C65.4513 45.7198 65.3994 45.4723 65.4471 45.0819C65.5266 44.4319 65.4931 44.4037 64.6469 44.4037C63.2627 44.4037 63.2633 44.4033 63.3463 45.0819C63.3893 45.4327 63.3609 45.7198 63.2833 45.7198C63.2056 45.7198 63.1154 45.4123 63.0828 45.0364C63.0358 44.4933 62.9451 44.353 62.6416 44.353C62.3382 44.353 62.2474 44.4933 62.2005 45.0364C62.1678 45.4123 62.0509 45.7198 61.9407 45.7198C61.8242 45.7198 61.7731 45.4528 61.8185 45.0819C61.8899 44.4975 61.855 44.4441 61.4003 44.4441C60.9455 44.4441 60.9106 44.4975 60.982 45.0819C61.0298 45.4723 60.9778 45.7198 60.8481 45.7198C60.7274 45.7198 60.6363 45.3979 60.6363 44.9713C60.6363 44.3637 60.5794 44.2436 60.3342 44.3335C60.1681 44.3944 59.9532 44.4441 59.8568 44.4441C59.7603 44.4441 59.6814 44.7311 59.6814 45.0819C59.6814 45.4327 59.5861 45.7198 59.4697 45.7198C59.3402 45.7198 59.2878 45.4734 59.335 45.0872C59.3872 44.6619 59.3258 44.4228 59.1479 44.3575C58.7206 44.2012 58.5356 44.4233 58.5356 45.0927C58.5356 45.4377 58.4496 45.7198 58.3446 45.7198C58.2396 45.7198 58.1536 45.4327 58.1536 45.0819C58.1536 44.523 58.0944 44.4441 57.6762 44.4441C57.2579 44.4441 57.1987 44.523 57.1987 45.0819C57.1987 45.4327 57.1034 45.7198 56.9869 45.7198C56.8572 45.7198 56.8053 45.4723 56.853 45.0819C56.9245 44.4975 56.8895 44.4441 56.4348 44.4441C55.9801 44.4441 55.9451 44.4975 56.0166 45.0819C56.062 45.4528 56.0108 45.7198 55.8943 45.7198C55.7841 45.7198 55.6673 45.4185 55.6346 45.0504C55.5859 44.4995 55.4973 44.3759 55.1337 44.3512C54.7458 44.3247 54.6986 44.3938 54.7462 44.9196C54.7758 45.2487 54.7381 45.5771 54.6625 45.6492C54.5869 45.7214 54.525 45.4934 54.525 45.1426C54.525 44.3867 54.4347 44.2708 53.941 44.394C53.666 44.4627 53.5701 44.646 53.5701 45.1033C53.5701 45.4422 53.4748 45.7198 53.3583 45.7198C53.2296 45.7198 53.1763 45.4754 53.2225 45.0971C53.2909 44.5387 53.246 44.4669 52.789 44.4029C52.2995 44.3342 52.2833 44.359 52.3769 45.0256C52.4403 45.4756 52.3984 45.7198 52.2585 45.7198C52.1395 45.7198 52.0423 45.4378 52.0423 45.0927C52.0423 44.406 51.8572 44.2012 51.391 44.3719C51.196 44.4434 51.0874 44.7043 51.0874 45.1014C51.0874 45.4415 50.9949 45.7198 50.8817 45.7198C50.7633 45.7198 50.7004 45.4508 50.7335 45.0854C50.765 44.7366 50.7285 44.4496 50.6525 44.4476C49.8424 44.427 49.8267 44.4405 49.9052 45.0819C49.953 45.4723 49.901 45.7198 49.7713 45.7198C49.6548 45.7198 49.5595 45.4377 49.5595 45.0927C49.5595 44.406 49.3745 44.2012 48.9083 44.3719C48.7133 44.4434 48.6046 44.7043 48.6046 45.1014C48.6046 45.4415 48.5074 45.7198 48.3885 45.7198C48.249 45.7198 48.2063 45.4772 48.2681 45.0364C48.3571 44.3998 48.3294 44.3519 47.8614 44.3359C47.3912 44.3196 47.3633 44.3637 47.4288 45.0192C47.4719 45.4495 47.4175 45.7198 47.2878 45.7198C47.1717 45.7198 47.0768 45.4327 47.0768 45.0819C47.0768 44.523 47.0176 44.4441 46.5994 44.4441C46.1769 44.4441 46.1219 44.521 46.1219 45.1124C46.1219 45.9117 45.9621 45.8512 45.8962 45.0269C45.8706 44.7063 45.782 44.4354 45.6993 44.4246C45.6166 44.4139 45.1412 44.3964 44.6432 44.3856L43.7371 44.3659L43.7983 45.0429C43.8342 45.4409 43.7748 45.7198 43.6539 45.7198C43.5406 45.7198 43.4482 45.4327 43.4482 45.0819C43.4482 44.7311 43.3838 44.4379 43.305 44.4301C43.2261 44.4224 43.0112 44.3887 42.8275 44.3552C42.5554 44.3054 42.4933 44.4263 42.4933 45.0069ZM64.6469 45.1838C64.6469 45.4787 64.561 45.7198 64.4559 45.7198C64.3509 45.7198 64.265 45.4278 64.265 45.0712C64.265 44.6852 64.3423 44.4682 64.4559 44.5352C64.561 44.5972 64.6469 44.8889 64.6469 45.1838ZM44.976 45.173C44.976 45.4737 44.8901 45.7198 44.7851 45.7198C44.68 45.7198 44.5941 45.4737 44.5941 45.173C44.5941 44.8724 44.68 44.6263 44.7851 44.6263C44.8901 44.6263 44.976 44.8724 44.976 45.173ZM30.3661 47.3901L50.9919 47.4486L30.0796 47.5408C18.5779 47.5917 8.97508 47.6033 8.73998 47.5669C8.09619 47.4669 8.37101 47.2642 9.10151 47.3003C9.45291 47.3176 19.0219 47.3581 30.3661 47.3901ZM42.3023 48.8178C42.3023 48.9369 38.8328 49 32.2759 49C25.719 49 22.2495 48.9369 22.2495 48.8178C22.2495 48.6986 25.719 48.6355 32.2759 48.6355C38.8328 48.6355 42.3023 48.6986 42.3023 48.8178Z" fill="white"/>
<path d="M73.001 24.1818V6H76.6498V14.1321H76.8806L83.6189 6H88.0134L81.1775 14.1499L88.0933 24.1818H83.7165L78.5851 16.6001L76.6498 18.9261V24.1818H73.001Z" fill="white"/>
<path d="M92.165 24.4482C91.2949 24.4482 90.5166 24.2943 89.8301 23.9865C89.1494 23.6787 88.6109 23.223 88.2143 22.6193C87.8237 22.0156 87.6284 21.264 87.6284 20.3643C87.6284 19.6068 87.7675 18.9735 88.0456 18.4645C88.3238 17.9496 88.7056 17.5382 89.1909 17.2305C89.6762 16.9227 90.2237 16.6889 90.8333 16.5291C91.4488 16.3693 92.0939 16.2539 92.7686 16.1829C93.5617 16.1059 94.2009 16.032 94.6863 15.9609C95.1775 15.884 95.5356 15.7745 95.7605 15.6325C95.9854 15.4845 96.0978 15.2596 96.0978 14.9577V14.9134C96.0978 14.3097 95.9114 13.8451 95.5385 13.5195C95.1716 13.1881 94.6478 13.0224 93.9672 13.0224C93.251 13.0224 92.6799 13.1792 92.2537 13.4929C91.8335 13.8066 91.5553 14.1913 91.4192 14.647L88.09 14.3185C88.2913 13.4899 88.6552 12.7797 89.182 12.1879C89.7087 11.596 90.3775 11.1462 91.1884 10.8384C92.0051 10.5247 92.9344 10.3679 93.976 10.3679C94.6981 10.3679 95.3994 10.4537 96.0801 10.6254C96.7607 10.7911 97.3703 11.0574 97.9089 11.4244C98.4475 11.7913 98.8766 12.2707 99.1962 12.8626C99.5158 13.4485 99.6756 14.1647 99.6756 15.011V24.1818H96.2665V22.2997H96.16C95.9469 22.7081 95.6599 23.075 95.2988 23.4006C94.9378 23.7261 94.4969 23.9835 93.976 24.1729C93.4552 24.3564 92.8515 24.4482 92.165 24.4482ZM93.1593 21.9268C93.7511 21.9268 94.266 21.8085 94.704 21.5717C95.1479 21.335 95.4941 21.0213 95.7427 20.6307C95.9913 20.2341 96.1156 19.7902 96.1156 19.299V17.7987C96.0031 17.8756 95.8374 17.9466 95.6184 18.0117C95.4054 18.0768 95.1627 18.136 94.8904 18.1893C94.6241 18.2425 94.3578 18.2899 94.0914 18.3313C93.8251 18.3668 93.5854 18.3994 93.3723 18.429C92.9166 18.4941 92.5141 18.6006 92.165 18.7486C91.8158 18.8906 91.5435 19.0859 91.3482 19.3345C91.1529 19.5831 91.0552 19.8938 91.0552 20.2667C91.0552 20.8112 91.2535 21.2255 91.65 21.5096C92.0466 21.7878 92.5497 21.9268 93.1593 21.9268Z" fill="white"/>
<path d="M100.864 24.1818V21.9979L107.665 13.5462V13.4396H101.086V10.5455H111.997V12.907L105.578 21.1811V21.2876H112.228V24.1818H100.864Z" fill="white"/>
<path d="M117.327 24.4482C116.457 24.4482 115.679 24.2943 114.992 23.9865C114.312 23.6787 113.773 23.223 113.376 22.6193C112.986 22.0156 112.79 21.264 112.79 20.3643C112.79 19.6068 112.93 18.9735 113.208 18.4645C113.486 17.9496 113.868 17.5382 114.353 17.2305C114.838 16.9227 115.386 16.6889 115.995 16.5291C116.611 16.3693 117.256 16.2539 117.931 16.1829C118.724 16.1059 119.363 16.032 119.848 15.9609C120.34 15.884 120.698 15.7745 120.923 15.6325C121.147 15.4845 121.26 15.2596 121.26 14.9577V14.9134C121.26 14.3097 121.074 13.8451 120.701 13.5195C120.334 13.1881 119.81 13.0224 119.129 13.0224C118.413 13.0224 117.842 13.1792 117.416 13.4929C116.996 13.8066 116.717 14.1913 116.581 14.647L113.252 14.3185C113.453 13.4899 113.817 12.7797 114.344 12.1879C114.871 11.596 115.54 11.1462 116.35 10.8384C117.167 10.5247 118.096 10.3679 119.138 10.3679C119.86 10.3679 120.562 10.4537 121.242 10.6254C121.923 10.7911 122.532 11.0574 123.071 11.4244C123.61 11.7913 124.039 12.2707 124.358 12.8626C124.678 13.4485 124.838 14.1647 124.838 15.011V24.1818H121.429V22.2997H121.322C121.109 22.7081 120.822 23.075 120.461 23.4006C120.1 23.7261 119.659 23.9835 119.138 24.1729C118.617 24.3564 118.014 24.4482 117.327 24.4482ZM118.321 21.9268C118.913 21.9268 119.428 21.8085 119.866 21.5717C120.31 21.335 120.656 21.0213 120.905 20.6307C121.153 20.2341 121.278 19.7902 121.278 19.299V17.7987C121.165 17.8756 121 17.9466 120.781 18.0117C120.567 18.0768 120.325 18.136 120.053 18.1893C119.786 18.2425 119.52 18.2899 119.254 18.3313C118.987 18.3668 118.748 18.3994 118.534 18.429C118.079 18.4941 117.676 18.6006 117.327 18.7486C116.978 18.8906 116.706 19.0859 116.51 19.3345C116.315 19.5831 116.217 19.8938 116.217 20.2667C116.217 20.8112 116.416 21.2255 116.812 21.5096C117.209 21.7878 117.712 21.9268 118.321 21.9268Z" fill="white"/>
<path d="M129.711 16.2628V24.1818H126.133V10.5455H129.551V12.9247H129.702C130.009 12.1375 130.516 11.5161 131.22 11.0604C131.924 10.5987 132.782 10.3679 133.794 10.3679C134.741 10.3679 135.567 10.575 136.271 10.9893C136.976 11.3977 137.52 11.9837 137.905 12.7472C138.295 13.5107 138.491 14.428 138.491 15.4993V24.1818H134.904V16.1119C134.91 15.2478 134.688 14.573 134.238 14.0877C133.794 13.6024 133.182 13.3597 132.401 13.3597C131.874 13.3597 131.406 13.4751 130.998 13.706C130.595 13.9309 130.282 14.2623 130.057 14.7003C129.832 15.1323 129.717 15.6532 129.711 16.2628Z" fill="white"/>
<path d="M73 46.6733V28.4915H85.1005V31.5188H76.6488V36.0643H84.4702V39.0828H76.6488V43.646H85.1449V46.6733H73Z" fill="white"/>
<path d="M89.3852 33.0369L91.9687 37.8931L94.6143 33.0369H98.3341L94.3213 39.8551L98.4229 46.6733H94.7297L91.9687 41.8881L89.252 46.6733H85.5145L89.6072 39.8551L85.6476 33.0369H89.3852Z" fill="white"/>
<path d="M98.9189 51.7869V33.0369H102.443V35.3185H102.621C102.787 34.9634 103.023 34.5965 103.331 34.2177C103.645 33.833 104.059 33.5104 104.574 33.25C105.089 32.9896 105.731 32.8594 106.501 32.8594C107.519 32.8594 108.448 33.1228 109.288 33.6495C110.135 34.1703 110.809 34.9516 111.312 35.9933C111.815 37.0349 112.067 38.3281 112.067 39.8729C112.067 41.388 111.821 42.6694 111.33 43.717C110.839 44.7587 110.173 45.5517 109.333 46.0962C108.492 46.6348 107.548 46.9041 106.501 46.9041C105.749 46.9041 105.116 46.7798 104.601 46.5313C104.092 46.2768 103.677 45.966 103.358 45.5991C103.038 45.2321 102.793 44.8681 102.621 44.5071H102.497V51.7869H98.9189ZM102.426 39.8551C102.426 40.6896 102.541 41.4206 102.772 42.048C103.009 42.6694 103.349 43.1547 103.793 43.5039C104.237 43.8472 104.775 44.0188 105.409 44.0188C106.06 44.0188 106.607 43.8413 107.051 43.4862C107.495 43.131 107.832 42.6428 108.063 42.0213C108.294 41.3939 108.409 40.6719 108.409 39.8551C108.409 39.0443 108.294 38.3311 108.063 37.7156C107.838 37.0941 107.504 36.6088 107.06 36.2596C106.616 35.9104 106.066 35.7358 105.409 35.7358C104.769 35.7358 104.228 35.9074 103.784 36.2507C103.34 36.5881 103.003 37.0645 102.772 37.68C102.541 38.2956 102.426 39.0206 102.426 39.8551Z" fill="white"/>
<path d="M116.494 28.4915V46.6733H112.916V28.4915H116.494Z" fill="white"/>
<path d="M123.961 46.9396C122.6 46.9396 121.422 46.6467 120.428 46.0607C119.434 45.4689 118.664 44.6462 118.12 43.5927C117.581 42.5392 117.312 41.3111 117.312 39.9084C117.312 38.4998 117.581 37.2687 118.12 36.2152C118.664 35.1558 119.434 34.3331 120.428 33.7472C121.422 33.1553 122.6 32.8594 123.961 32.8594C125.322 32.8594 126.5 33.1553 127.495 33.7472C128.489 34.3331 129.255 35.1558 129.794 36.2152C130.338 37.2687 130.611 38.4998 130.611 39.9084C130.611 41.3111 130.338 42.5392 129.794 43.5927C129.255 44.6462 128.489 45.4689 127.495 46.0607C126.5 46.6467 125.322 46.9396 123.961 46.9396ZM123.979 44.1342C124.642 44.1342 125.195 43.9478 125.639 43.5749C126.083 43.2021 126.414 42.696 126.633 42.0568C126.858 41.4176 126.971 40.6956 126.971 39.8906C126.971 39.0798 126.858 38.3548 126.633 37.7156C126.414 37.0764 126.083 36.5703 125.639 36.1975C125.195 35.8187 124.642 35.6293 123.979 35.6293C123.31 35.6293 122.751 35.8187 122.301 36.1975C121.851 36.5703 121.514 37.0764 121.289 37.7156C121.064 38.3548 120.952 39.0798 120.952 39.8906C120.952 40.6956 121.064 41.4176 121.289 42.0568C121.514 42.696 121.851 43.2021 122.301 43.5749C122.751 43.9478 123.31 44.1342 123.979 44.1342Z" fill="white"/>
<path d="M131.413 46.6733V33.0369H134.884V35.3807H135.026C135.275 34.5521 135.695 33.9218 136.287 33.4897C136.879 33.0577 137.56 32.8416 138.329 32.8416C138.518 32.8416 138.723 32.8535 138.941 32.8771C139.16 32.8949 139.35 32.9215 139.51 32.957V36.1797C139.35 36.1264 139.116 36.0791 138.808 36.0377C138.501 35.9962 138.214 35.9755 137.947 35.9755C137.385 35.9755 136.879 36.0998 136.429 36.3484C135.985 36.591 135.633 36.9284 135.373 37.3605C135.118 37.7925 134.991 38.2897 134.991 38.8519V46.6733H131.413Z" fill="white"/>
<path d="M145.304 46.9396C143.919 46.9396 142.723 46.6555 141.717 46.0874C140.717 45.5133 139.944 44.7024 139.4 43.6548C138.861 42.6013 138.592 41.3584 138.592 39.9261C138.592 38.5234 138.861 37.2924 139.4 36.233C139.944 35.1676 140.708 34.339 141.69 33.7472C142.673 33.1553 143.827 32.8594 145.153 32.8594C146.029 32.8594 146.851 33.0014 147.621 33.2855C148.39 33.5637 149.065 33.9898 149.645 34.5639C150.225 35.1321 150.678 35.8512 151.003 36.7212C151.335 37.5854 151.5 38.6033 151.5 39.7752V40.7873H140.101V38.5057H148.109C148.103 37.9375 147.979 37.4344 147.736 36.9965C147.493 36.5526 147.153 36.2034 146.715 35.9489C146.283 35.6944 145.78 35.5671 145.206 35.5671C144.602 35.5671 144.07 35.7092 143.608 35.9933C143.152 36.2774 142.794 36.6532 142.534 37.1207C142.273 37.5824 142.14 38.0943 142.134 38.6566V40.7695C142.134 41.4857 142.267 42.1042 142.534 42.625C142.8 43.1399 143.173 43.5365 143.652 43.8146C144.138 44.0928 144.709 44.2319 145.366 44.2319C145.804 44.2319 146.2 44.1698 146.555 44.0455C146.916 43.9212 147.227 43.7377 147.488 43.495C147.748 43.2465 147.943 42.9446 148.074 42.5895L151.403 42.8558C151.219 43.6785 150.855 44.3976 150.311 45.0131C149.772 45.6228 149.08 46.0962 148.233 46.4336C147.387 46.771 146.41 46.9396 145.304 46.9396Z" fill="white"/>
</svg>
